<?xml version="1.0" encoding="utf-8"?>
<!-- Generator: Adobe Illustrator 16.0.0, SVG Export Plug-In . SVG Version: 6.00 Build 0)  -->
<!DOCTYPE svg PUBLIC "-//W3C//DTD SVG 1.1//EN" "http://www.w3.org/Graphics/SVG/1.1/DTD/svg11.dtd">
<svg version="1.1" id="Layer_1" xmlns="http://www.w3.org/2000/svg" xmlns:xlink="http://www.w3.org/1999/xlink" x="0px" y="0px"
	 width="96px" height="96px" viewBox="0 0 96 96" enable-background="new 0 0 96 96" xml:space="preserve">
<path fill="#4CAF50" d="M48,94.871C22.113,94.871,1.129,73.887,1.129,48C1.129,22.114,22.113,1.128,48,1.128
	c25.887,0,46.871,20.985,46.871,46.871C94.871,73.887,73.887,94.871,48,94.871"/>
<path fill="#388E3C" d="M48.001,27.903c-0.023,0.103-0.063,0.204-0.12,0.3l-8.788,14.573h8.909h8.408h0.498L48.12,28.202
	C48.063,28.106,48.023,28.005,48.001,27.903 M47.041,25.848c0.31,0.165,0.564,0.42,0.729,0.729c0.191,0.102,0.36,0.237,0.502,0.399
	c-0.139,0.138-0.231,0.311-0.272,0.496c-0.057-0.259-0.215-0.494-0.459-0.642c-0.094-0.057-0.192-0.096-0.293-0.118v-0.035
	C47.248,26.378,47.173,26.095,47.041,25.848z M45.167,28.834c-0.214-0.156-0.391-0.36-0.517-0.596
	c0.226,0.121,0.48,0.193,0.752,0.206L45.167,28.834z M72.475,43.958l19.719,19.688c-6.034,17.045-21.648,29.557-40.37,31.067
	L28.01,70.875c0.889,0.74,1.998,1.189,3.27,1.189H48h0.003h16.72c1.422,0,2.643-0.563,3.576-1.47
	c0.021-0.018,0.043-0.036,0.063-0.059c0.965-0.963,1.601-2.31,1.803-3.765l0.005-0.035l2.763-20.611
	c0.004-0.022,0.008-0.046,0.01-0.069c0.02-0.16,0.027-0.307,0.027-0.438L72.475,43.958z M52.081,25.848l17.011,16.928H59.24
	L50.6,28.445c0.939-0.042,1.918-0.845,1.688-1.767L52.081,25.848z"/>
<line fill="none" stroke="#FFFFFF" stroke-width="1.9998" stroke-linecap="round" stroke-linejoin="round" stroke-miterlimit="2.6131" x1="59.145" y1="43.822" x2="70.143" y2="43.822"/>
<path fill="none" stroke="#FFFFFF" stroke-width="1.9998" stroke-linecap="round" stroke-linejoin="round" stroke-miterlimit="2.6131" d="
	M70.143,43.822c1.289,0,1.946,0.908,1.806,2.172"/>
<line fill="none" stroke="#FFFFFF" stroke-width="1.9998" stroke-linecap="round" stroke-linejoin="round" stroke-miterlimit="2.6131" x1="71.947" y1="45.994" x2="69.18" y2="66.65"/>
<path fill="none" stroke="#FFFFFF" stroke-width="1.9998" stroke-linecap="round" stroke-linejoin="round" stroke-miterlimit="2.6131" d="
	M69.18,66.65c-0.322,2.414-2.021,4.459-4.459,4.459"/>
<polyline fill="none" stroke="#FFFFFF" stroke-width="1.9998" stroke-linecap="round" stroke-linejoin="round" stroke-miterlimit="2.6131" points="
	64.721,71.109 48.001,71.109 47.998,71.109 31.278,71.109 "/>
<path fill="none" stroke="#FFFFFF" stroke-width="1.9998" stroke-linecap="round" stroke-linejoin="round" stroke-miterlimit="2.6131" d="
	M31.278,71.109c-2.438,0-4.135-2.041-4.458-4.459"/>
<line fill="none" stroke="#FFFFFF" stroke-width="1.9998" stroke-linecap="round" stroke-linejoin="round" stroke-miterlimit="2.6131" x1="26.82" y1="66.65" x2="24.052" y2="45.994"/>
<path fill="none" stroke="#FFFFFF" stroke-width="1.9998" stroke-linecap="round" stroke-linejoin="round" stroke-miterlimit="2.6131" d="
	M24.052,45.994c-0.141-1.264,0.517-2.172,1.807-2.172"/>
<line fill="none" stroke="#FFFFFF" stroke-width="1.9998" stroke-linecap="round" stroke-linejoin="round" stroke-miterlimit="2.6131" x1="25.858" y1="43.822" x2="37.104" y2="43.822"/>
<line fill="none" stroke="#FFFFFF" stroke-width="1.9998" stroke-linecap="round" stroke-linejoin="round" stroke-miterlimit="2.6131" x1="56.41" y1="43.822" x2="48.001" y2="43.822"/>
<line fill="none" stroke="#FFFFFF" stroke-width="1.9998" stroke-linecap="round" stroke-linejoin="round" stroke-miterlimit="2.6131" x1="37.493" y1="43.822" x2="58.436" y2="43.822"/>
<line fill="none" stroke="#FFFFFF" stroke-width="1.9998" stroke-linecap="round" stroke-linejoin="round" stroke-miterlimit="2.6131" x1="61.014" y1="47.697" x2="48.977" y2="27.732"/>
<path fill="none" stroke="#FFFFFF" stroke-width="1.9998" stroke-miterlimit="2.6131" d="M50.995,24.955
	c-0.978-0.262-1.981,0.318-2.245,1.296c-0.262,0.978,0.318,1.983,1.298,2.245c0.978,0.262,1.981-0.318,2.243-1.297
	C52.553,26.222,51.973,25.216,50.995,24.955"/>
<line fill="none" stroke="#FFFFFF" stroke-width="1.9998" stroke-linecap="round" stroke-linejoin="round" stroke-miterlimit="2.6131" x1="34.986" y1="47.697" x2="47.025" y2="27.733"/>
<path fill="none" stroke="#FFFFFF" stroke-width="1.9998" stroke-miterlimit="2.6131" d="M45.006,24.954
	c0.978-0.262,1.983,0.318,2.245,1.296c0.262,0.979-0.318,1.983-1.297,2.246c-0.977,0.262-1.981-0.318-2.244-1.297
	C43.448,26.22,44.028,25.216,45.006,24.954"/>
<line fill="none" stroke="#FFFFFF" stroke-width="1.9998" stroke-linecap="round" stroke-linejoin="round" stroke-miterlimit="2.6131" x1="36.674" y1="52.457" x2="36.674" y2="66.506"/>
<line fill="none" stroke="#FFFFFF" stroke-width="1.9998" stroke-linecap="round" stroke-linejoin="round" stroke-miterlimit="2.6131" x1="42.336" y1="48.422" x2="42.336" y2="66.508"/>
<line fill="none" stroke="#FFFFFF" stroke-width="1.9998" stroke-linecap="round" stroke-linejoin="round" stroke-miterlimit="2.6131" x1="47.998" y1="48.422" x2="47.998" y2="66.508"/>
<line fill="none" stroke="#FFFFFF" stroke-width="1.9998" stroke-linecap="round" stroke-linejoin="round" stroke-miterlimit="2.6131" x1="53.659" y1="48.422" x2="53.659" y2="66.508"/>
<line fill="none" stroke="#FFFFFF" stroke-width="1.9998" stroke-linecap="round" stroke-linejoin="round" stroke-miterlimit="2.6131" x1="59.32" y1="52.457" x2="59.32" y2="66.506"/>
<line fill="none" stroke="#FFFFFF" stroke-width="1.9998" stroke-linecap="round" stroke-linejoin="round" stroke-miterlimit="2.6131" x1="64.986" y1="52.457" x2="64.291" y2="66.508"/>
<line fill="none" stroke="#FFFFFF" stroke-width="1.9998" stroke-linecap="round" stroke-linejoin="round" stroke-miterlimit="2.6131" x1="31.011" y1="52.457" x2="31.871" y2="66.508"/>
</svg>
